<svg width="467" height="96" viewBox="0 0 467 96" fill="none" xmlns="http://www.w3.org/2000/svg">
<path d="M464.021 12.6152C465.743 6.25753 460.956 0 454.369 0H116.761C112.245 0 108.289 3.02632 107.109 7.38485L101.419 28.3848C99.6962 34.7425 104.484 41 111.071 41H198.823C205.41 41 210.198 47.2575 208.475 53.6152L200.502 83.044C198.779 89.4016 203.567 95.6591 210.154 95.6591H433.869C438.385 95.6591 442.34 92.6328 443.521 88.2743L464.021 12.6152Z" fill="#FF0040"/>
<rect width="42.6347" height="12.4327" transform="matrix(1 0 -0.261515 0.965199 124.882 75)" fill="white"/>
<rect width="135.523" height="1.03606" transform="matrix(1 0 -0.261515 0.965199 0.270935 86)" fill="white"/>
<path d="M116.046 2.52799V18.528H152.782V92.128H168.782V18.528H205.518V2.52799H116.046Z" fill="white"/>
<path d="M308.246 76L270.742 2.39999L233.238 76L225.174 92.128H243.094L270.742 37.728L290.326 76L298.518 92.128H316.438L308.246 76Z" fill="white"/>
<path d="M425.136 2.39999V47.2C425.136 63.2 412.208 76.128 396.336 76.128C380.336 76.128 367.408 63.2 367.408 47.2V2.39999H351.536V47.2C351.536 72.032 371.504 92.128 396.336 92.128C421.04 92.128 441.136 72.032 441.136 47.2V2.39999H425.136Z" fill="white"/>
</svg>
